<svg data-name="Layer 1" xmlns="http://www.w3.org/2000/svg" width="980.48" height="770.906" viewBox="0 0 980.48 770.906"><path fill="#575a89" d="M0 700.961h912v2H0zM122.224 197.71h-6l-25.5 92.5s-.5 61.5 5.5 91.5c0 0 10-13 17-13s13.5-65.5 13.5-65.5 27.5-93.5-4.5-105.5z"/><path d="M254.224 374.71s-16 45-1 48 23-35 19-40-18-8-18-8zm-159.626-9.296s4.497 47.547 19.361 43.933 6.07-41.439.333-44.282-19.694.349-19.694.349zm38.626 278.296s7 34-5 43 4 28 4 28l38-40s-16-25-15-40zm60 31.001l-4 27-1 19 22-2 3-39-20-5z" fill="#a0616a"/><path d="M108.557 370.179s-12.333 4.532-11.333 17.532 4 54 4 54-9 88 0 118 26 90 26 90 26 5 32-14c0 0-1-65-12-79s-3-18-2-20 4-5 4-8 1-14 1-18-1-3 1-9 4-8 4-9 17-54 17-54l22 123s-5 121-3 121 24 8 32 0c0 0 20-104 16-110s-5-7-4-13 3-9 1-12-5-13-2-16 4-17 4-17 17-98 6-112-135.667-32.532-135.667-32.532z" fill="#2f2e41"/><path d="M142.224 687.71s-12-15-16-8-10 18-10 18-45 39-20 40 41-17 41-17 4-20 16-20l2 5 22-14s-3.098-26.55-12.049-25.775zm42 30s26-10 29 0 3 15 3 15 22 36 0 38-32-12-32-12 3-17 0-19 0-22 0-22z" fill="#2f2e41"/><circle cx="202.224" cy="130.711" r="35" fill="#a0616a"/><path d="M176.224 138.71l-7 39 49 12s-11.5-28.5 1-41c3.163-3.162-43-10-43-10z" fill="#a0616a"/><path d="M172.207 161.096a6.382 6.382 0 00-4.983 4.615 26.629 26.629 0 01-4 8s-47 22-47 25 19 67 19 67 1 40-7 49-16 42-14 45-14 10-8 15 90 53 140 31c0 0 1-9 0-15s6-26 4-33 0-79 0-79l10.306-85.257a6.938 6.938 0 00-4.867-7.475c-11.526-3.503-38.254-17.845-41.939-14.768-4.77 3.983-34.535 1.27-41.517-10.115z" fill="#575a89"/><path d="M251.224 185.71l.064-.025a6.936 6.936 0 018.181 2.343c6.197 8.48 19.237 27.538 20.755 39.683 2 16 8 59 7 65s-2 7 0 10 1 2 0 5-13 86-13 86-8-18-23-12c0 0 2-16 0-21s-4-8-2-12 0-43-1-47 0-25 0-25l-9-41z" fill="#575a89"/><path d="M195.687 136.67l1.183-8.242c.275-1.92 1.4-4.446 3.268-3.924 1.59.444 5.053 1.805 5.633 1.394 2.171-1.538 5.457 1.152 7.74-.215.957-.572 1.581-1.799 2.693-1.88a3.067 3.067 0 011.977.895 13.454 13.454 0 005.116 2.78 5.504 5.504 0 005.387-1.469 2.86 2.86 0 01.953-.913 2.137 2.137 0 011.37.063l5.833 1.589a22.418 22.418 0 00-2.999-18.457 37.123 37.123 0 00-8.497-8.322q-5.42-4.123-11.186-7.756c-4.207-2.658-8.67-5.165-13.59-5.912-4.92-.747-10.428.59-13.523 4.487a8.708 8.708 0 01-3.132-4.232 3.205 3.205 0 00.207 4.915l-4.934-3.151c-1.387 1.456 1.323 4.097.141 5.725a3.015 3.015 0 01-1.328.867 22.619 22.619 0 00-7.235 4.553c-2.836 2.844-4.376 6.704-5.698 10.496-2.94 8.435-5.077 18.108-.9 26.004.474.895 6.726 15.67 7.558 16.246 2.816 1.947.983-2.766 3 0 1.582 2.168 1.286-6.132 3.637-4.31a5.86 5.86 0 006.38.287c.974-.676.66-4.43.134-7.877a4.061 4.061 0 014.941-4.57c2.928.69 5.821 1.278 5.871.928z" fill="#2f2e41"/><path d="M740.29 138.988v-54.44a125.247 125.247 0 01-80.858-60.19l-.001.002a23.79 23.79 0 01-14.22 4.68h-43.229a178.55 178.55 0 00138.309 109.948z" fill="#3f3d56"/><path d="M740.29 81.428V29.13A29.121 29.121 0 00711.16 0h-41.97v5.05a23.917 23.917 0 01-7.398 17.329 122.298 122.298 0 0078.499 59.049zM538.402 29.04h-27.031a23.987 23.987 0 01-23.98-23.99V0h-39.38a29.128 29.128 0 00-29.13 29.13v648.2a29.08 29.08 0 0029.13 29.11h263.15a28.362 28.362 0 003.59-.22 29.146 29.146 0 0025.54-28.89V200.158c-95.71-11.09-175.458-79.38-201.889-171.118z" fill="#3f3d56"/><path d="M598.702 29.04h-57.14c26.3 90.039 104.68 157.028 198.729 168.068v-55.02A181.668 181.668 0 01598.702 29.04z" fill="#3f3d56"/><path d="M514.17 696.42c.725-.721 17.928-18.143 32.51-59.48 13.378-37.926 26.878-104.062 15.213-203.762-22.1-188.876 91.228-309.248 92.377-310.442l-3.355-3.221c-.291.303-29.43 30.933-55.354 84.706a416.28 416.28 0 00-38.287 229.497c22.062 188.554-45.698 258.719-46.385 259.407z" opacity=".1"/><circle cx="689.068" cy="89.349" r="30.222" opacity=".1"/><circle cx="570.003" cy="175.146" r="30.222" opacity=".1"/><circle cx="615.594" cy="262.856" r="30.222" opacity=".1"/><circle cx="523.918" cy="305.086" r="30.222" opacity=".1"/><circle cx="600.13" cy="424.203" r="30.222" opacity=".1"/><path d="M496.17 693.17s47.005-65.103-27.84-140.81zm36.427 7.504s32.127-73.59 135.385-47.68z" opacity=".1"/><path fill="#6c63ff" d="M453 491.961h254v50H453zm129.5-289.867a115.511 115.511 0 00-22.15 228.877c.208.041.42.082.632.12q4.99.945 10.126 1.446c.212.023.421.045.633.06q5.003.466 10.126.494c.212.003.421.003.633.003q5.117 0 10.126-.44c.212-.015.42-.034.633-.056q5.131-.47 10.126-1.39c.212-.038.424-.076.633-.117A115.51 115.51 0 00582.5 202.094z"/><path d="M693 317.594a110.534 110.534 0 01-89.914 108.584c-.2.04-.402.076-.605.112q-4.773.876-9.688 1.329c-.203.021-.403.04-.605.055q-4.787.417-9.688.42c-.203 0-.403 0-.605-.003q-4.896-.022-9.688-.472c-.203-.015-.403-.036-.606-.057q-4.909-.477-9.687-1.384a36.247 36.247 0 01-.606-.115A110.509 110.509 0 11693 317.594z" fill="#3f3d56"/><path d="M566.88 409.563a4.659 4.659 0 114.658-4.66 4.665 4.665 0 01-4.659 4.66zm0-8.386a3.727 3.727 0 103.727 3.727 3.732 3.732 0 00-3.728-3.727zm15.62-118.525h.932v138.141h-.932zm0-59.216h.932v40.753h-.932zm-47.988 45.005h.932v138.205h-.932zm65.692 0h.932v138.205h-.932zm-49.851-15.374h.932v128.285h-.932zm16.06-34.991h.932v177.975h-.932zm47.303 6.57h.932v27.694h-.932zm0 46.184h.932v126.667h-.932zm15.84-19.627h.932v16.307h-.932zm0 34.594h.932v81.001h-.932zm0 97.554h.932v14.146h-.932zm-78.738 11.351a4.659 4.659 0 114.66-4.66 4.664 4.664 0 01-4.66 4.66zM582.5 277.294a4.659 4.659 0 114.659-4.66 4.664 4.664 0 01-4.659 4.66zm0-8.387a3.727 3.727 0 103.727 3.728 3.732 3.732 0 00-3.727-3.728z" fill="#6c63ff"/><path d="M582.966 223.715a4.659 4.659 0 114.659-4.66 4.664 4.664 0 01-4.66 4.66zm0-8.387a3.727 3.727 0 103.727 3.728 3.732 3.732 0 00-3.727-3.728zm47.056 164.465a4.659 4.659 0 114.66-4.66 4.665 4.665 0 01-4.66 4.66zm0-8.387a3.727 3.727 0 103.727 3.728 3.732 3.732 0 00-3.727-3.728zm-95.044-109.021a4.659 4.659 0 114.659-4.66 4.664 4.664 0 01-4.66 4.66zm95.044 19.102a4.659 4.659 0 114.66-4.66 4.664 4.664 0 01-4.66 4.66zm0-8.386a3.727 3.727 0 103.727 3.727 3.732 3.732 0 00-3.727-3.727zm-15.84-7.455a4.659 4.659 0 114.659-4.659 4.664 4.664 0 01-4.66 4.659z" fill="#6c63ff"/><path d="M808.667 693.377s47.005-65.102-27.84-140.81zm36.428 2.505s32.127-73.59 135.385-47.681z" opacity=".1"/></svg>