<svg width="1280" height="640" viewBox="0 0 1280 640" fill="none" xmlns="http://www.w3.org/2000/svg">
<rect width="1280" height="640" fill="#343A40"/>
<path fill-rule="evenodd" clip-rule="evenodd" d="M249.007 220L248.404 260.201L342.206 258.794L340.799 352.596L381 351.993L376.21 224.79L249.007 220ZM181 288.007L185.79 415.21L312.993 420L313.596 379.799L219.794 381.206L221.201 287.404L181 288.007Z" fill="#DADADA"/>
<path d="M565.406 350.695C565.406 345.161 563.453 340.93 559.547 338C555.641 335.005 548.609 331.88 538.453 328.625C528.297 325.305 520.257 322.049 514.332 318.859C498.186 310.135 490.113 298.384 490.113 283.605C490.113 275.923 492.262 269.087 496.559 263.098C500.921 257.043 507.138 252.323 515.211 248.938C523.349 245.552 532.464 243.859 542.555 243.859C552.711 243.859 561.76 245.715 569.703 249.426C577.646 253.072 583.798 258.247 588.16 264.953C592.587 271.659 594.801 279.276 594.801 287.805H565.504C565.504 281.294 563.453 276.249 559.352 272.668C555.25 269.022 549.488 267.199 542.066 267.199C534.905 267.199 529.339 268.729 525.367 271.789C521.396 274.784 519.41 278.755 519.41 283.703C519.41 288.326 521.721 292.199 526.344 295.324C531.031 298.449 537.9 301.379 546.949 304.113C563.616 309.126 575.758 315.344 583.375 322.766C590.992 330.188 594.801 339.432 594.801 350.5C594.801 362.805 590.146 372.473 580.836 379.504C571.526 386.47 558.993 389.953 543.238 389.953C532.301 389.953 522.34 387.967 513.355 383.996C504.371 379.96 497.503 374.458 492.75 367.492C488.062 360.526 485.719 352.453 485.719 343.273H515.113C515.113 358.964 524.488 366.809 543.238 366.809C550.204 366.809 555.641 365.409 559.547 362.609C563.453 359.745 565.406 355.773 565.406 350.695ZM652.32 348.059L671.852 282.336H702.125L659.645 404.406L657.301 409.973C650.986 423.775 640.569 430.676 626.051 430.676C621.949 430.676 617.783 430.057 613.551 428.82V407.434L617.848 407.531C623.186 407.531 627.158 406.717 629.762 405.09C632.431 403.462 634.514 400.76 636.012 396.984L639.332 388.293L602.32 282.336H632.691L652.32 348.059ZM739.234 282.336L740.113 294.543C747.665 285.103 757.789 280.383 770.484 280.383C781.682 280.383 790.016 283.671 795.484 290.246C800.953 296.822 803.753 306.652 803.883 319.738V388H775.66V320.422C775.66 314.432 774.358 310.103 771.754 307.434C769.15 304.699 764.82 303.332 758.766 303.332C750.823 303.332 744.866 306.717 740.895 313.488V388H712.672V282.336H739.234ZM869.312 367.199C874.521 367.199 878.753 365.767 882.008 362.902C885.263 360.038 886.956 356.229 887.086 351.477H913.551C913.486 358.638 911.533 365.214 907.691 371.203C903.85 377.128 898.577 381.75 891.871 385.07C885.23 388.326 877.874 389.953 869.801 389.953C854.697 389.953 842.783 385.168 834.059 375.598C825.335 365.962 820.973 352.681 820.973 335.754V333.898C820.973 317.622 825.302 304.634 833.961 294.934C842.62 285.233 854.501 280.383 869.605 280.383C882.822 280.383 893.401 284.159 901.344 291.711C909.352 299.198 913.421 309.191 913.551 321.691H887.086C886.956 316.223 885.263 311.796 882.008 308.41C878.753 304.96 874.456 303.234 869.117 303.234C862.542 303.234 857.561 305.643 854.176 310.461C850.855 315.214 849.195 322.961 849.195 333.703V336.633C849.195 347.505 850.855 355.318 854.176 360.07C857.496 364.823 862.542 367.199 869.312 367.199ZM959.449 388H931.129V282.336H959.449V388ZM929.469 254.992C929.469 250.76 930.868 247.277 933.668 244.543C936.533 241.809 940.406 240.441 945.289 240.441C950.107 240.441 953.948 241.809 956.812 244.543C959.677 247.277 961.109 250.76 961.109 254.992C961.109 259.289 959.645 262.805 956.715 265.539C953.85 268.273 950.042 269.641 945.289 269.641C940.536 269.641 936.695 268.273 933.766 265.539C930.901 262.805 929.469 259.289 929.469 254.992ZM990.504 388V303.039H974.781V282.336H990.504V273.352C990.504 261.503 993.889 252.323 1000.66 245.812C1007.5 239.237 1017.03 235.949 1029.27 235.949C1033.18 235.949 1037.96 236.6 1043.63 237.902L1043.34 259.777C1040.99 259.191 1038.13 258.898 1034.74 258.898C1024.13 258.898 1018.82 263.879 1018.82 273.84V282.336H1039.82V303.039H1018.82V388H990.504ZM1093.92 348.059L1113.45 282.336H1143.73L1101.25 404.406L1098.9 409.973C1092.59 423.775 1082.17 430.676 1067.65 430.676C1063.55 430.676 1059.38 430.057 1055.15 428.82V407.434L1059.45 407.531C1064.79 407.531 1068.76 406.717 1071.36 405.09C1074.03 403.462 1076.12 400.76 1077.61 396.984L1080.93 388.293L1043.92 282.336H1074.29L1093.92 348.059Z" fill="#DADADA"/>
</svg>
