<svg width="1280" height="400" viewBox="0 0 1280 400" fill="none" xmlns="http://www.w3.org/2000/svg">
<rect width="1280" height="400" fill="#343A40"/>
<path fill-rule="evenodd" clip-rule="evenodd" d="M249.007 100L248.404 140.201L342.206 138.794L340.799 232.596L381 231.993L376.21 104.79L249.007 100ZM181 168.007L185.79 295.21L312.993 300L313.596 259.799L219.794 261.206L221.201 167.404L181 168.007Z" fill="#DADADA"/>
<path d="M565.406 231.07C565.406 225.536 563.453 221.305 559.547 218.375C555.641 215.38 548.609 212.255 538.453 209C528.297 205.68 520.257 202.424 514.332 199.234C498.186 190.51 490.113 178.759 490.113 163.98C490.113 156.298 492.262 149.462 496.559 143.473C500.921 137.418 507.138 132.698 515.211 129.312C523.349 125.927 532.464 124.234 542.555 124.234C552.711 124.234 561.76 126.09 569.703 129.801C577.646 133.447 583.798 138.622 588.16 145.328C592.587 152.034 594.801 159.651 594.801 168.18H565.504C565.504 161.669 563.453 156.624 559.352 153.043C555.25 149.397 549.488 147.574 542.066 147.574C534.905 147.574 529.339 149.104 525.367 152.164C521.396 155.159 519.41 159.13 519.41 164.078C519.41 168.701 521.721 172.574 526.344 175.699C531.031 178.824 537.9 181.754 546.949 184.488C563.616 189.501 575.758 195.719 583.375 203.141C590.992 210.562 594.801 219.807 594.801 230.875C594.801 243.18 590.146 252.848 580.836 259.879C571.526 266.845 558.993 270.328 543.238 270.328C532.301 270.328 522.34 268.342 513.355 264.371C504.371 260.335 497.503 254.833 492.75 247.867C488.062 240.901 485.719 232.828 485.719 223.648H515.113C515.113 239.339 524.488 247.184 543.238 247.184C550.204 247.184 555.641 245.784 559.547 242.984C563.453 240.12 565.406 236.148 565.406 231.07ZM652.32 228.434L671.852 162.711H702.125L659.645 284.781L657.301 290.348C650.986 304.15 640.569 311.051 626.051 311.051C621.949 311.051 617.783 310.432 613.551 309.195V287.809L617.848 287.906C623.186 287.906 627.158 287.092 629.762 285.465C632.431 283.837 634.514 281.135 636.012 277.359L639.332 268.668L602.32 162.711H632.691L652.32 228.434ZM739.234 162.711L740.113 174.918C747.665 165.478 757.789 160.758 770.484 160.758C781.682 160.758 790.016 164.046 795.484 170.621C800.953 177.197 803.753 187.027 803.883 200.113V268.375H775.66V200.797C775.66 194.807 774.358 190.478 771.754 187.809C769.15 185.074 764.82 183.707 758.766 183.707C750.823 183.707 744.866 187.092 740.895 193.863V268.375H712.672V162.711H739.234ZM869.312 247.574C874.521 247.574 878.753 246.142 882.008 243.277C885.263 240.413 886.956 236.604 887.086 231.852H913.551C913.486 239.013 911.533 245.589 907.691 251.578C903.85 257.503 898.577 262.125 891.871 265.445C885.23 268.701 877.874 270.328 869.801 270.328C854.697 270.328 842.783 265.543 834.059 255.973C825.335 246.337 820.973 233.056 820.973 216.129V214.273C820.973 197.997 825.302 185.009 833.961 175.309C842.62 165.608 854.501 160.758 869.605 160.758C882.822 160.758 893.401 164.534 901.344 172.086C909.352 179.573 913.421 189.566 913.551 202.066H887.086C886.956 196.598 885.263 192.171 882.008 188.785C878.753 185.335 874.456 183.609 869.117 183.609C862.542 183.609 857.561 186.018 854.176 190.836C850.855 195.589 849.195 203.336 849.195 214.078V217.008C849.195 227.88 850.855 235.693 854.176 240.445C857.496 245.198 862.542 247.574 869.312 247.574ZM959.449 268.375H931.129V162.711H959.449V268.375ZM929.469 135.367C929.469 131.135 930.868 127.652 933.668 124.918C936.533 122.184 940.406 120.816 945.289 120.816C950.107 120.816 953.948 122.184 956.812 124.918C959.677 127.652 961.109 131.135 961.109 135.367C961.109 139.664 959.645 143.18 956.715 145.914C953.85 148.648 950.042 150.016 945.289 150.016C940.536 150.016 936.695 148.648 933.766 145.914C930.901 143.18 929.469 139.664 929.469 135.367ZM990.504 268.375V183.414H974.781V162.711H990.504V153.727C990.504 141.878 993.889 132.698 1000.66 126.188C1007.5 119.612 1017.03 116.324 1029.27 116.324C1033.18 116.324 1037.96 116.975 1043.63 118.277L1043.34 140.152C1040.99 139.566 1038.13 139.273 1034.74 139.273C1024.13 139.273 1018.82 144.254 1018.82 154.215V162.711H1039.82V183.414H1018.82V268.375H990.504ZM1093.92 228.434L1113.45 162.711H1143.73L1101.25 284.781L1098.9 290.348C1092.59 304.15 1082.17 311.051 1067.65 311.051C1063.55 311.051 1059.38 310.432 1055.15 309.195V287.809L1059.45 287.906C1064.79 287.906 1068.76 287.092 1071.36 285.465C1074.03 283.837 1076.12 281.135 1077.61 277.359L1080.93 268.668L1043.92 162.711H1074.29L1093.92 228.434Z" fill="#DADADA"/>
</svg>
